<svg viewBox="0 0 19 16" xmlns="http://www.w3.org/2000/svg">
    <g clip-path="url(#clip0_12_125)">
        <path d="M18.4063 15.0148V1.71078H13.0403V0.37793H5.9598V1.71073H0.59372V15.0148H0V15.825H0.59372H8.14624H10.8538H18.4063H19V15.0148H18.4063ZM7.33613 15.0148H1.40389V2.52089H7.33613V15.0148ZM10.8538 15.0148H8.14624V13.61H10.8538V15.0148ZM10.8538 1.96337H9.92275V3.25224H10.8538V4.04208H9.92275V5.33094H10.8538V6.12093H9.92275V7.40974H10.8538V8.19963H9.92275V9.48849H10.8538V10.2784H9.92275V11.5671H10.8538V12.8504H8.14624V11.5671H9.07725V10.2784H8.14624V9.48849H9.07725V8.19963H8.14624V7.40974H9.07725V6.12093H8.14624V5.33094H9.07725V4.04208H8.14624V3.25224H9.07725V1.96337H8.14624V1.71078H6.71925V1.13743H12.2807V1.71078H10.8538L10.8538 1.96337ZM17.5962 15.0148H11.6639V2.52089H17.5962V15.0148Z" />
        <path d="M14.1792 3.40198H12.4497V4.77669H14.1792V3.40198Z" />
        <path d="M16.8105 3.40198H15.081V4.77669H16.8105V3.40198Z" />
        <path d="M14.1792 5.61926H12.4497V6.99392H14.1792V5.61926Z" />
        <path d="M16.8105 5.61926H15.081V6.99392H16.8105V5.61926Z" />
        <path d="M14.1792 7.83655H12.4497V9.21131H14.1792V7.83655Z" />
        <path d="M16.8105 7.83655H15.081V9.21131H16.8105V7.83655Z" />
        <path d="M14.1792 10.054H12.4497V11.4287H14.1792V10.054Z" />
        <path d="M16.8105 10.054H15.081V11.4287H16.8105V10.054Z" />
        <path d="M14.1792 12.2712H12.4497V13.646H14.1792V12.2712Z" />
        <path d="M16.8105 12.2712H15.081V13.646H16.8105V12.2712Z" />
        <path d="M3.91912 3.40198H2.18964V4.77669H3.91912V3.40198Z" />
        <path d="M6.55038 3.40198H4.82089V4.77669H6.55038V3.40198Z" />
        <path d="M3.91912 5.61926H2.18964V6.99392H3.91912V5.61926Z" />
        <path d="M6.55038 5.61926H4.82089V6.99392H6.55038V5.61926Z" />
        <path d="M3.91912 7.83655H2.18964V9.21131H3.91912V7.83655Z" />
        <path d="M6.55038 7.83655H4.82089V9.21131H6.55038V7.83655Z" />
        <path d="M3.91912 10.054H2.18964V11.4287H3.91912V10.054Z" />
        <path d="M6.55038 10.054H4.82089V11.4287H6.55038V10.054Z" />
        <path d="M3.91912 12.2712H2.18964V13.646H3.91912V12.2712Z" />
        <path d="M6.55038 12.2712H4.82089V13.646H6.55038V12.2712Z" />
    </g>
</svg>
