<svg viewBox="0 0 19 19" xmlns="http://www.w3.org/2000/svg">
    <path d="M0 1.59375C0 0.713867 0.727865 0 1.625 0H11.375C12.2721 0 13 0.713867 13 1.59375V8.11226C12.87 8.17434 12.7754 8.29703 12.7432 8.44345L12.4842 9.62669C12.1568 9.76138 11.8501 9.93959 11.5724 10.153L10.4182 9.78625C10.2358 9.72823 10.0327 9.77796 9.91048 9.92716C9.74263 10.1302 9.58929 10.3457 9.45253 10.5737L9.35513 10.7415C9.22873 10.9695 9.1189 11.2057 9.02772 11.4523C8.96141 11.6326 9.01736 11.8336 9.16034 11.9621L10.0576 12.7785C10.0348 12.9505 10.0224 13.1267 10.0224 13.3049C10.0224 13.4831 10.0348 13.6592 10.0576 13.8333L9.16034 14.6497C9.01736 14.7782 8.96141 14.9792 9.02772 15.1595C9.1189 15.4061 9.22873 15.6423 9.35513 15.8703L9.45253 16.0381C9.58929 16.2661 9.74263 16.4816 9.91048 16.6847C10.0327 16.8318 10.2358 16.8836 10.4182 16.8256L11.5703 16.4567C11.7461 16.5918 11.9335 16.7128 12.1304 16.8176C11.9047 16.9341 11.6477 17 11.375 17H8.125V14.3438C8.125 13.4639 7.39714 12.75 6.5 12.75C5.60286 12.75 4.875 13.4639 4.875 14.3438V17H1.625C0.727865 17 0 16.2861 0 15.4062V1.59375ZM13 14.6263V15.4062C13 16.0187 12.6473 16.5507 12.1304 16.8176C12.2446 16.8783 12.3619 16.9336 12.4821 16.9831L12.7411 18.1663C12.7826 18.3549 12.9276 18.5041 13.1183 18.5351C13.4042 18.5828 13.6985 18.6077 13.999 18.6077C14.2994 18.6077 14.5937 18.5828 14.8797 18.5351C15.0703 18.5041 15.2154 18.3549 15.2568 18.1663L15.5158 16.9831C15.8432 16.8484 16.1499 16.6701 16.4276 16.4567L17.5818 16.8235C17.7642 16.8815 17.9673 16.8318 18.0895 16.6826C18.2574 16.4795 18.4107 16.264 18.5475 16.036L18.6449 15.8682C18.7713 15.6403 18.8811 15.404 18.9723 15.1574C19.0386 14.9771 18.9826 14.7761 18.8397 14.6477L17.9424 13.8312C17.9652 13.6592 17.9776 13.4831 17.9776 13.3049C17.9776 13.1267 17.9652 12.9505 17.9424 12.7785L18.8397 11.9621C18.9826 11.8336 19.0386 11.6326 18.9723 11.4523L18.9743 11.4502C18.8832 11.2036 18.7733 10.9674 18.6469 10.7395L18.5495 10.5716C18.4128 10.3437 18.2594 10.1282 18.0916 9.92509C17.9693 9.77796 17.7663 9.72615 17.5839 9.78418L16.4297 10.151C16.152 9.93752 15.8453 9.75931 15.5179 9.62462L15.2589 8.44138C15.2174 8.25281 15.0724 8.10361 14.8817 8.07253C14.5958 8.02487 14.3015 8 14.001 8C13.7006 8 13.4063 8.02487 13.1203 8.0746C13.0777 8.08155 13.0374 8.09439 13 8.11226V11.9834C12.9399 12.029 12.8827 12.0788 12.8288 12.1326C12.5179 12.4435 12.3433 12.8652 12.3433 13.3049C12.3433 13.7445 12.5179 14.1662 12.8288 14.4771C12.8827 14.531 12.9399 14.5808 13 14.6263ZM13 14.6263V11.9834C13.2864 11.7664 13.6376 11.6471 14.001 11.6471C14.4407 11.6471 14.8624 11.8218 15.1733 12.1326C15.4841 12.4435 15.6588 12.8652 15.6588 13.3049C15.6588 13.7445 15.4841 14.1662 15.1733 14.4771C14.8624 14.788 14.4407 14.9626 14.001 14.9626C13.6376 14.9626 13.2864 14.8433 13 14.6263ZM2.70833 7.4375C2.41042 7.4375 2.16667 7.67656 2.16667 7.96875V9.03125C2.16667 9.32344 2.41042 9.5625 2.70833 9.5625H3.79167C4.08958 9.5625 4.33333 9.32344 4.33333 9.03125V7.96875C4.33333 7.67656 4.08958 7.4375 3.79167 7.4375H2.70833ZM7.04167 7.4375H5.95833C5.66042 7.4375 5.41667 7.67656 5.41667 7.96875V9.03125C5.41667 9.32344 5.66042 9.5625 5.95833 9.5625H7.04167C7.33958 9.5625 7.58333 9.32344 7.58333 9.03125V7.96875C7.58333 7.67656 7.33958 7.4375 7.04167 7.4375ZM9.20833 7.4375C8.91042 7.4375 8.66667 7.67656 8.66667 7.96875V9.03125C8.66667 9.32344 8.91042 9.5625 9.20833 9.5625H10.2917C10.5896 9.5625 10.8333 9.32344 10.8333 9.03125V7.96875C10.8333 7.67656 10.5896 7.4375 10.2917 7.4375H9.20833ZM3.79167 3.1875H2.70833C2.41042 3.1875 2.16667 3.42656 2.16667 3.71875V4.78125C2.16667 5.07344 2.41042 5.3125 2.70833 5.3125H3.79167C4.08958 5.3125 4.33333 5.07344 4.33333 4.78125V3.71875C4.33333 3.42656 4.08958 3.1875 3.79167 3.1875ZM5.95833 3.1875C5.66042 3.1875 5.41667 3.42656 5.41667 3.71875V4.78125C5.41667 5.07344 5.66042 5.3125 5.95833 5.3125H7.04167C7.33958 5.3125 7.58333 5.07344 7.58333 4.78125V3.71875C7.58333 3.42656 7.33958 3.1875 7.04167 3.1875H5.95833ZM10.2917 3.1875H9.20833C8.91042 3.1875 8.66667 3.42656 8.66667 3.71875V4.78125C8.66667 5.07344 8.91042 5.3125 9.20833 5.3125H10.2917C10.5896 5.3125 10.8333 5.07344 10.8333 4.78125V3.71875C10.8333 3.42656 10.5896 3.1875 10.2917 3.1875Z"/>
</svg>
