<svg viewBox="0 0 19 17" xmlns="http://www.w3.org/2000/svg">
    <path d="M0 1.59375C0 0.713867 0.727865 0 1.625 0H11.375C12.2721 0 13 0.713867 13 1.59375V11.2667L12.8648 11.1298C12.1234 11.0648 11.3855 11.3354 10.8542 11.8733L10.7154 12.0139C10.3282 12.4058 10.1112 12.9366 10.1112 13.4902C10.1112 13.6097 10.2344 13.6871 10.3403 13.6343L11.2275 13.1862C11.3143 13.1422 11.3925 13.2582 11.3213 13.325L9.12674 15.3216C9.04688 15.3954 9 15.5009 9 15.6116C9 15.826 9.17188 16 9.3837 16H12.3925C12.5657 16 12.7369 15.9821 12.9039 15.9474C12.6779 16.5611 12.0785 17 11.375 17H8.125V14.3438C8.125 13.4639 7.39714 12.75 6.5 12.75C5.60286 12.75 4.875 13.4639 4.875 14.3438V17H1.625C0.727865 17 0 16.2861 0 15.4062V1.59375ZM12.9039 15.9474C13.3863 15.8469 13.833 15.6055 14.1877 15.2478C14.719 14.71 14.9846 13.963 14.9221 13.2125L13 11.2667V15.4062C13 15.5962 12.9661 15.7784 12.9039 15.9474ZM2.70833 7.4375C2.41042 7.4375 2.16667 7.67656 2.16667 7.96875V9.03125C2.16667 9.32344 2.41042 9.5625 2.70833 9.5625H3.79167C4.08958 9.5625 4.33333 9.32344 4.33333 9.03125V7.96875C4.33333 7.67656 4.08958 7.4375 3.79167 7.4375H2.70833ZM7.04167 7.4375H5.95833C5.66042 7.4375 5.41667 7.67656 5.41667 7.96875V9.03125C5.41667 9.32344 5.66042 9.5625 5.95833 9.5625H7.04167C7.33958 9.5625 7.58333 9.32344 7.58333 9.03125V7.96875C7.58333 7.67656 7.33958 7.4375 7.04167 7.4375ZM9.20833 7.4375C8.91042 7.4375 8.66667 7.67656 8.66667 7.96875V9.03125C8.66667 9.32344 8.91042 9.5625 9.20833 9.5625H10.2917C10.5896 9.5625 10.8333 9.32344 10.8333 9.03125V7.96875C10.8333 7.67656 10.5896 7.4375 10.2917 7.4375H9.20833ZM3.79167 3.1875H2.70833C2.41042 3.1875 2.16667 3.42656 2.16667 3.71875V4.78125C2.16667 5.07344 2.41042 5.3125 2.70833 5.3125H3.79167C4.08958 5.3125 4.33333 5.07344 4.33333 4.78125V3.71875C4.33333 3.42656 4.08958 3.1875 3.79167 3.1875ZM5.95833 3.1875C5.66042 3.1875 5.41667 3.42656 5.41667 3.71875V4.78125C5.41667 5.07344 5.66042 5.3125 5.95833 5.3125H7.04167C7.33958 5.3125 7.58333 5.07344 7.58333 4.78125V3.71875C7.58333 3.42656 7.33958 3.1875 7.04167 3.1875H5.95833ZM10.2917 3.1875H9.20833C8.91042 3.1875 8.66667 3.42656 8.66667 3.71875V4.78125C8.66667 5.07344 8.91042 5.3125 9.20833 5.3125H10.2917C10.5896 5.3125 10.8333 5.07344 10.8333 4.78125V3.71875C10.8333 3.42656 10.5896 3.1875 10.2917 3.1875ZM18.8372 7.16477C19.0543 7.38447 19.0543 7.74125 18.8372 7.96094L18.839 7.9627L15.5055 11.3372L16.1079 11.9471C16.1809 12.0209 16.2225 12.1228 16.2225 12.2283C16.2225 12.448 16.0472 12.6255 15.8302 12.6255H15.3249L13.4446 10.7221V10.2106C13.4446 9.99092 13.62 9.81341 13.837 9.81341C13.9412 9.81341 14.0419 9.85559 14.1148 9.92941L14.7173 10.5393L18.0507 7.16477C18.2678 6.94508 18.6202 6.94508 18.8372 7.16477Z"/>
</svg>
